<?xml version="1.0" encoding="iso-8859-1"?>
<!-- Generator: Adobe Illustrator 19.0.0, SVG Export Plug-In . SVG Version: 6.00 Build 0)  -->
<svg version="1.1" id="Capa_1" xmlns="http://www.w3.org/2000/svg" xmlns:xlink="http://www.w3.org/1999/xlink" x="0px" y="0px"
	 viewBox="0 0 512 512" style="enable-background:new 0 0 512 512;" xml:space="preserve">
<g>
	<g>
		<path d="M366,0H146c-24.813,0-45,20.187-45,45v422c0,24.813,20.187,45,45,45h220c24.813,0,45-20.187,45-45V45
			C411,20.187,390.813,0,366,0z M381,467c0,8.271-6.729,15-15,15H146c-8.271,0-15-6.729-15-15v-45h250V467z M381,392H131V45
			c0-8.271,6.729-15,15-15h220c8.271,0,15,6.729,15,15V392z"/>
	</g>
</g>
<g>
	<g>
		<circle cx="256" cy="452" r="15"/>
	</g>
</g>
<g>
	<g>
		<circle cx="176" cy="452" r="15"/>
	</g>
</g>
<g>
	<g>
		<circle cx="336" cy="452" r="15"/>
	</g>
</g>
<g>
	<g>
		<path d="M302,171v22c0,8.271-6.729,15-15,15h-16v-84.385h20l-35-50l-35,50h20V248h-15c-8.271,0-15-6.729-15-15v-20h-30v20
			c0,24.813,20.187,45,45,45h15v8.929c-14.643,5.947-25,20.318-25,37.071c0,22.056,17.944,40,40,40c22.056,0,40-17.944,40-40
			c0-16.753-10.357-31.124-25-37.071V238h16c24.813,0,45-20.187,45-45v-22H302z M256,334c-5.514,0-10-4.486-10-10
			c0-5.514,4.486-10,10-10c5.514,0,10,4.486,10,10C266,329.514,261.514,334,256,334z"/>
	</g>
</g>
<g>
	<g>
		<rect x="302" y="131" width="30" height="30"/>
	</g>
</g>
<g>
	<g>
		<circle cx="196" cy="188" r="15"/>
	</g>
</g>
<g>
</g>
<g>
</g>
<g>
</g>
<g>
</g>
<g>
</g>
<g>
</g>
<g>
</g>
<g>
</g>
<g>
</g>
<g>
</g>
<g>
</g>
<g>
</g>
<g>
</g>
<g>
</g>
<g>
</g>
</svg>
